<?xml version="1.0"?>
<svg width="24" height="24" xmlns="http://www.w3.org/2000/svg" xmlns:svg="http://www.w3.org/2000/svg" data-name="Layer 1">
 <g class="layer">
  <title>Layer 1</title>
  <path d="m23,12.92a5.06,5.06 0 0 0 -1.05,-3.24l-6.85,-8.21a4,4 0 0 0 -6.19,-0.01l-6.89,8.25a4.98,4.98 0 0 0 -1.02,3.21a5.25,5.25 0 0 0 1.37,3.27l6.76,6.59a3.97,3.97 0 0 0 2.88,1.22l0,0a3.95,3.95 0 0 0 2.85,-1.2l6.79,-6.65a5.16,5.16 0 0 0 1.35,-3.23zm-2.61,-2a3.02,3.02 0 0 1 0.46,0.87l-4.11,-0.68l-2.93,-8.07l6.58,7.88zm-8.38,2.83l-2.82,-2.11l2.82,-7.71l2.8,7.71l-2.8,2.11zm-1.81,-10.71l-2.94,8.07l-4.12,0.69a2.87,2.87 0 0 1 0.45,-0.84l6.61,-7.92zm-6.39,11.75a3.02,3.02 0 0 1 -0.61,-0.98l4.54,-0.75l3.27,2.44l0,6.23a2.12,2.12 0 0 1 -0.46,-0.36l-6.74,-6.58zm9.64,6.6a2.02,2.02 0 0 1 -0.44,0.34l0,-6.23l3.25,-2.44l4.55,0.76a2.91,2.91 0 0 1 -0.58,0.93l-6.78,6.64z" id="svg_1" transform="rotate(180 12 11.9995)"/>
 </g>
</svg>