<?xml version="1.0" encoding="UTF-8"?>
<svg id="Camada_1" data-name="Camada 1" xmlns="http://www.w3.org/2000/svg" viewBox="0 0 168.24 183.46">
  <defs>
    <style>
      .cls-1 {
        fill: none;
      }

      .cls-1, .cls-2, .cls-3 {
        stroke-width: 0px;
      }

      .cls-2 {
        fill: #070508;
      }

      .cls-3 {
        fill: #fff;
      }
    </style>
  </defs>
  <g>
    <path id="svg_1" data-name="svg 1" class="cls-2" d="M95.16,3.43c-6.85-4.57-15.99-4.57-23.6,0L0,46.82v89.83l72.32,43.39c6.85,4.57,15.99,4.57,23.6,0l72.32-43.39V46.82c-.76,0-73.08-43.39-73.08-43.39Z"/>
    <path id="svg_2" data-name="svg 2" class="cls-3" d="M8.37,130.55l75.36,44.91,75.36-44.91V49.86L83.74,4.95,8.37,49.86"/>
    <line id="svg_18" data-name="svg 18" class="cls-1" x1="36.54" y1="103.15" x2="2.28" y2="87.16"/>
  </g>
  <polygon class="cls-2" points="105.05 116.85 139.31 104.67 134.74 90.97 83.74 109.24 32.73 90.97 28.17 104.67 62.42 116.85 28.17 128.27 32.73 141.97 83.74 123.7 134.74 141.97 139.31 128.27 105.05 116.85"/>
  <path class="cls-2" d="M83.74,103.15c15.99,0,28.17-9.14,28.17-25.88,0-6.85-2.28-19.03-12.18-28.17,1.52,6.85-6.09,9.14-6.09,9.14,3.81-12.18-6.09-28.17-20.55-31.21,3.05,9.14,3.81,19.03-8.37,28.17-6.09,5.33-9.14,13.7-9.14,22.08,0,15.99,12.18,25.88,28.17,25.88M83.74,98.58c-7.61,0-14.46-4.57-14.46-12.94,0-3.81,1.52-9.14,6.09-14.46-.76,3.81,3.81,6.09,3.81,6.09-1.52-6.09,2.28-15.23,9.14-16.75-.76,4.57-1.52,9.14,4.57,14.46,3.04,2.28,4.57,6.85,4.57,10.66.76,7.61-6.09,12.94-13.7,12.94"/>
</svg>